<?xml version="1.0" standalone="no"?>
<!DOCTYPE svg PUBLIC "-//W3C//DTD SVG 20010904//EN"
 "http://www.w3.org/TR/2001/REC-SVG-20010904/DTD/svg10.dtd">
<svg version="1.0" xmlns="http://www.w3.org/2000/svg"
 width="450.000000pt" height="600.000000pt" viewBox="0 0 450.000000 600.000000"
 preserveAspectRatio="xMidYMid meet">

<g transform="translate(0.000000,600.000000) scale(0.100000,-0.100000)"
fill="#000000" stroke="none">
<path d="M2510 3882 c0 -4 16 -6 35 -4 19 2 35 6 35 8 0 2 -16 4 -35 4 -19 0
-35 -4 -35 -8z"/>
<path d="M2640 3870 c30 -4 66 -10 79 -15 17 -5 22 -4 19 6 -3 10 -26 14 -79
15 -72 2 -73 2 -19 -6z"/>
<path d="M2458 3829 c17 -18 42 -47 53 -64 17 -24 29 -31 59 -32 41 -2 356
-33 640 -63 102 -11 259 -27 350 -35 91 -8 199 -19 240 -25 41 -5 118 -12 170
-16 52 -3 105 -10 117 -15 18 -7 30 -3 55 19 62 52 73 56 19 6 -46 -42 -53
-53 -46 -74 7 -22 8 -23 21 -6 9 13 22 17 47 14 l35 -4 7 51 c3 27 8 60 10 73
2 13 -2 25 -8 27 -7 3 -219 25 -472 50 -253 25 -620 61 -815 81 -195 19 -391
38 -435 41 l-80 6 33 -34z m685 -61 c-25 -12 -32 -34 -9 -25 10 4 12 0 9 -14
-8 -28 -30 -23 -36 7 -3 19 1 28 17 34 30 13 45 11 19 -2z m150 -18 c8 -11 17
-17 20 -14 3 4 18 4 32 0 18 -5 25 -13 26 -34 l2 -27 4 28 c4 25 8 27 48 27
24 0 46 -4 50 -9 3 -6 18 -6 37 0 30 8 57 1 31 -8 -7 -3 -13 -17 -13 -32 l0
-27 -67 7 c-38 5 -78 8 -90 8 -18 1 -23 7 -23 26 0 33 -16 32 -28 -2 -8 -23
-11 -25 -17 -11 -5 14 -10 15 -25 5 -25 -15 -37 -2 -16 18 20 20 20 29 3 44
-19 15 -27 4 -27 -36 0 -24 -5 -33 -16 -33 -11 0 -14 5 -10 16 3 9 6 29 6 45
0 25 4 29 29 29 18 0 35 -8 44 -20z m82 0 c3 -5 1 -10 -4 -10 -6 0 -11 5 -11
10 0 6 2 10 4 10 3 0 8 -4 11 -10z m-244 -48 c16 3 26 1 23 -4 -8 -12 -48 -10
-62 4 -7 7 -12 19 -11 28 0 9 4 7 12 -8 8 -18 17 -23 38 -20z"/>
<path d="M3405 3707 c-4 -10 -5 -21 -1 -24 10 -10 18 4 13 24 -4 17 -4 17 -12
0z"/>
<path d="M3440 3696 c0 -15 4 -25 9 -22 10 7 9 31 -2 42 -4 4 -7 -5 -7 -20z"/>
<path d="M3490 3700 c-13 -8 -12 -10 3 -10 9 0 17 5 17 10 0 12 -1 12 -20 0z"/>
<path d="M2420 3830 c0 -13 -49 -467 -54 -505 -8 -53 -15 -181 -10 -160 4 11
13 28 22 38 8 9 12 20 9 23 -3 4 -2 15 4 25 7 15 6 19 -6 19 -8 0 -15 4 -15
10 0 5 16 8 35 6 42 -3 44 1 9 14 -18 7 -24 15 -20 26 3 9 6 26 6 39 0 18 6
24 26 27 24 3 24 4 9 23 -15 18 -16 18 -11 2 4 -12 2 -17 -6 -15 -7 3 -13 13
-13 24 0 14 8 20 33 22 32 3 32 3 32 -42 l0 -45 -32 6 c-22 4 -29 3 -24 -5 4
-7 16 -12 27 -12 16 0 19 -7 19 -45 0 -41 -2 -45 -25 -45 -14 0 -25 -4 -25
-10 0 -5 13 -10 29 -10 28 0 29 1 35 73 4 39 9 86 11 102 2 17 9 84 16 150 7
66 16 128 21 138 7 13 3 26 -14 47 -13 16 -33 43 -46 60 -23 30 -42 39 -42 20z"/>
<path d="M3970 3740 c0 -5 4 -10 9 -10 6 0 13 5 16 10 3 6 -1 10 -9 10 -9 0
-16 -4 -16 -10z"/>
<path d="M4020 3740 c-13 -8 -12 -10 3 -10 9 0 17 5 17 10 0 12 -1 12 -20 0z"/>
<path d="M4120 3726 c68 -14 91 -14 79 -1 -3 2 -39 7 -80 10 l-74 5 75 -14z"/>
<path d="M2547 3714 c-3 -5 18 -10 46 -12 29 -2 61 -5 72 -9 14 -4 17 -2 10 6
-13 13 -121 26 -128 15z"/>
<path d="M2698 3693 c7 -3 16 -2 19 1 4 3 -2 6 -13 5 -11 0 -14 -3 -6 -6z"/>
<path d="M2735 3691 c6 -6 9 -29 7 -51 -4 -38 -6 -40 -39 -40 -20 0 -32 4 -28
10 4 6 -10 11 -34 11 -46 2 -47 2 -80 13 -29 10 -41 -5 -41 -51 0 -30 3 -33
33 -35 17 -1 46 -3 62 -4 17 -1 47 -3 68 -3 l38 -1 -6 -92 c-3 -50 -8 -95 -11
-100 -8 -13 -64 -9 -70 5 -6 16 -36 18 -46 4 -4 -6 -13 -4 -23 6 -9 10 -27 17
-41 17 -31 0 -27 17 -59 -295 -16 -156 -22 -205 -31 -266 -3 -23 -1 -40 6 -44
9 -6 9 -9 0 -15 -9 -5 -9 -13 -1 -28 8 -15 25 -21 68 -26 32 -4 69 -9 83 -12
25 -4 25 -3 22 37 -5 44 10 71 28 53 7 -7 8 -25 1 -52 -8 -38 -7 -42 10 -42
29 0 34 3 31 26 -2 11 2 32 7 47 10 27 12 27 39 13 48 -25 150 -44 219 -41
l65 3 -6 -44 c-3 -24 -2 -44 3 -44 5 0 16 -3 25 -6 13 -5 16 1 16 33 0 58 13
66 73 43 28 -11 53 -18 55 -15 3 2 13 0 23 -6 14 -7 19 -6 19 2 0 8 15 9 53 4
28 -4 63 -8 77 -9 23 -1 25 -5 23 -49 -1 -26 3 -47 8 -47 5 0 9 22 9 49 0 45
2 49 21 44 17 -5 20 -12 18 -49 -2 -24 -1 -45 2 -47 2 -3 31 -7 64 -11 33 -4
89 -11 125 -16 36 -5 67 -10 70 -10 3 0 4 17 2 38 -3 43 9 67 31 59 11 -4 13
-16 7 -51 -4 -25 -4 -46 -1 -47 3 0 16 -2 29 -5 20 -4 22 0 22 39 0 51 7 62
26 42 10 -10 12 -26 8 -54 l-7 -41 39 0 c22 -1 58 -5 82 -9 58 -11 68 1 76 91
4 40 11 107 17 148 5 41 12 109 15 150 l6 75 -44 -1 c-27 -1 -42 -6 -40 -14 1
-6 -2 -8 -8 -5 -6 4 -9 14 -6 24 5 14 4 14 -7 -1 -10 -13 -17 -14 -25 -6 -8 8
-15 8 -26 -1 -8 -7 -20 -10 -26 -6 -5 3 -10 -2 -10 -13 0 -11 -9 -22 -19 -25
-27 -7 -31 21 -17 127 11 90 26 116 50 84 16 -20 66 -38 99 -33 15 2 27 0 27
-5 0 -4 11 -11 25 -14 14 -4 23 -11 20 -16 -4 -6 -15 -6 -30 0 -14 5 -52 9
-86 9 l-60 -1 3 -31 c3 -31 4 -32 63 -34 33 -1 74 -5 91 -8 l30 -5 12 89 c7
48 12 93 12 98 0 8 -57 16 -125 16 -27 0 -57 -7 -72 -16 -30 -19 -44 33 -24
87 7 16 7 26 0 28 -6 2 -7 20 -3 44 10 65 15 69 65 43 24 -13 55 -23 69 -24
14 -1 43 -5 66 -9 l41 -7 7 62 c14 139 17 136 -100 146 -75 6 -97 -4 -55 -27
26 -13 52 -14 31 0 -10 7 -4 8 20 4 19 -3 47 -5 61 -5 15 1 29 -5 33 -14 6
-18 -11 -19 -50 -5 -19 8 -30 8 -38 0 -7 -7 -7 -11 -1 -10 6 2 12 1 15 0 3 -1
19 -4 35 -6 17 -3 34 -9 40 -15 11 -11 8 -11 -72 0 -70 10 -103 5 -103 -15 0
-8 -10 -14 -21 -14 -20 0 -21 4 -16 43 2 23 8 50 12 60 6 13 2 17 -16 17 -13
0 -132 11 -264 25 -132 14 -294 30 -360 36 -66 6 -131 12 -145 13 -259 30
-377 39 -365 27z m147 -21 c61 -8 98 -11 211 -19 9 -1 9 -37 0 -69 -5 -21 -10
-23 -42 -17 -20 3 -41 12 -46 19 -6 7 -23 12 -38 10 -17 -2 -25 1 -21 8 4 6
-7 9 -29 7 -20 -2 -39 0 -43 4 -4 4 -15 0 -25 -9 -23 -21 -73 -15 -77 9 -6 29
7 67 22 67 8 0 48 -4 88 -10z m438 -46 c36 -4 83 -8 105 -9 l40 -1 0 -45 c0
-50 1 -49 -95 -30 -30 6 -76 13 -103 16 -26 4 -45 10 -42 16 4 5 2 9 -4 9 -5
0 -11 -5 -13 -12 -2 -6 -11 -12 -19 -14 -7 -1 -21 -3 -29 -5 -19 -5 -26 51
-11 79 9 17 17 18 58 12 26 -5 77 -11 113 -16z m325 -36 c44 -5 107 -11 140
-12 l60 -4 -3 -43 c-3 -52 -6 -55 -35 -41 -12 6 -31 13 -42 14 -11 2 -22 5
-25 8 -12 13 -110 26 -119 17 -7 -7 -13 -4 -17 7 -4 10 -10 14 -13 9 -12 -17
-62 -44 -71 -38 -11 7 -13 65 -4 90 5 12 13 15 28 10 11 -4 57 -11 101 -17z
m-800 -64 c23 -6 153 -16 203 -15 l33 0 -6 -67 c-9 -95 -16 -142 -22 -142 -3
0 -26 7 -52 14 -54 17 -171 35 -176 27 -2 -3 -20 -6 -42 -6 l-38 0 2 45 c1 25
2 62 2 83 0 21 3 48 7 59 6 20 13 21 89 2z m321 -41 c-13 -42 -14 -98 -3 -112
8 -10 8 -12 1 -8 -8 4 -14 -8 -18 -33 -9 -57 -36 -55 -36 3 0 24 3 47 7 51 4
4 6 22 4 41 -4 49 7 75 30 75 15 0 19 -5 15 -17z m284 -63 c0 -27 -3 -50 -7
-50 -5 0 -8 -24 -8 -52 0 -40 -4 -53 -16 -56 -23 -4 -34 54 -15 83 8 12 12 33
9 48 -7 37 4 77 22 77 11 0 15 -13 15 -50z m70 25 c0 -8 8 -11 20 -8 14 4 20
0 20 -12 0 -9 -9 -19 -19 -22 -22 -6 -34 -48 -17 -62 6 -5 23 -11 38 -13 14
-2 32 -9 40 -15 8 -7 23 -12 33 -11 11 1 34 -2 51 -6 24 -5 33 -3 38 9 4 11
13 14 25 10 24 -7 31 3 24 36 -3 19 -10 25 -21 22 -21 -5 -47 33 -30 43 7 4
13 3 15 -3 5 -13 43 -5 43 8 0 5 9 9 20 9 18 0 19 -5 14 -82 -3 -46 -7 -93
-10 -105 -5 -28 -30 -30 -39 -4 -6 19 -13 22 -129 46 -51 11 -73 12 -83 4 -7
-6 -19 -9 -27 -6 -8 3 -16 -2 -19 -14 -3 -10 -13 -19 -22 -19 -15 0 -17 11
-13 98 2 53 7 102 11 109 9 15 37 6 37 -12z m110 -5 c3 -1 24 -1 48 0 23 1 42
-3 42 -8 0 -12 -36 -22 -45 -14 -10 11 -75 12 -75 1 0 -5 -5 -9 -11 -9 -8 0
-8 4 0 14 10 11 8 15 -6 19 -10 3 -4 4 12 2 17 -2 32 -4 35 -5z m-360 -80 c11
-7 5 -8 -20 -4 -43 8 -51 14 -19 14 13 0 31 -5 39 -10z m70 -6 c0 -2 -12 -4
-26 -4 -14 0 -23 4 -20 9 6 8 46 4 46 -5z m347 -40 c-3 -3 -12 -4 -19 -1 -8 3
-5 6 6 6 11 1 17 -2 13 -5z m-973 -42 c-1 -7 -2 -25 -2 -42 -3 -41 -32 -42
-32 -1 0 16 3 37 6 46 7 18 30 15 28 -3z m66 0 c0 -7 19 -10 72 -13 9 0 15 -6
12 -13 -2 -6 4 -12 16 -13 22 -2 27 12 8 20 -7 3 6 6 29 6 23 1 45 -3 48 -9 6
-10 -4 -13 -40 -11 -17 1 -16 -1 4 -9 17 -7 28 -7 37 1 8 7 32 13 54 15 l39 4
-5 -53 c-14 -149 -16 -157 -30 -157 -8 0 -17 7 -20 15 -4 8 -14 15 -25 15 -10
0 -22 7 -27 16 -6 10 -25 16 -54 17 -27 1 -44 6 -41 12 2 5 -2 2 -10 -8 -9
-11 -18 -14 -22 -8 -4 7 -12 7 -25 1 -11 -6 -29 -15 -40 -20 -12 -6 -25 -8
-30 -5 -13 8 -13 65 0 85 5 9 5 19 -2 27 -6 7 -7 29 -3 53 6 34 10 40 31 40
13 0 24 -4 24 -8z m488 1 c-10 -2 -26 -2 -35 0 -10 3 -2 5 17 5 19 0 27 -2 18
-5z m-141 -133 c-2 -55 -6 -103 -10 -106 -16 -17 -27 14 -26 79 0 93 7 127 25
127 12 0 14 -17 11 -100z m294 58 c6 -92 -8 -198 -27 -198 -10 0 -13 21 -13
88 0 48 3 95 5 105 6 19 34 23 35 5z m80 -20 c1 -25 2 -24 -5 -65 -3 -15 -8
-49 -12 -76 -7 -53 -18 -66 -33 -39 -6 12 -6 42 1 88 16 109 18 114 33 114 9
0 16 -10 16 -22z m-798 -35 c-7 -47 -20 -64 -33 -43 -6 8 -8 21 -5 28 3 8 5
22 5 33 0 12 7 19 19 19 17 0 19 -5 14 -37z m1097 15 c0 -7 -5 -55 -12 -105
-11 -80 -15 -93 -31 -93 -17 0 -18 5 -13 48 4 26 8 66 10 90 2 23 7 49 10 57
7 18 36 20 36 3z m-226 -7 c3 -5 0 -14 -7 -19 -10 -8 -13 -6 -14 9 -2 19 11
26 21 10z m112 -16 c14 0 20 -5 16 -14 -4 -10 -16 -11 -46 -7 -23 4 -47 8 -53
8 -7 1 -13 8 -13 15 0 11 9 12 38 6 20 -4 47 -7 58 -8z m-56 -81 c61 -7 70
-10 70 -26 0 -14 -112 -2 -121 14 -4 6 -9 2 -14 -11 -8 -25 -24 -28 -20 -3 1
9 -2 22 -7 29 -7 9 -4 11 14 8 12 -3 48 -8 78 -11z m-947 -77 c-3 -22 -10 -36
-17 -34 -14 5 -20 41 -11 75 10 41 34 7 28 -41z m102 42 c22 -6 63 -12 90 -14
28 -1 76 -6 107 -10 l57 -8 -4 -41 c-3 -22 -7 -67 -10 -98 -4 -37 -11 -58 -19
-58 -18 0 -79 31 -88 44 -6 8 -11 7 -17 -3 -7 -11 -11 -10 -19 4 -7 14 -17 17
-40 12 -20 -4 -32 -2 -35 6 -3 8 -9 7 -18 -5 -8 -10 -30 -19 -49 -20 l-35 -3
2 45 c1 25 2 62 2 83 0 49 9 77 24 77 7 0 30 -5 52 -11z m452 -25 c-3 -3 -12
-4 -19 -1 -8 3 -5 6 6 6 11 1 17 -2 13 -5z m-121 -41 c-3 -21 -8 -69 -12 -106
-5 -55 -9 -67 -23 -65 -17 4 -18 15 -6 108 10 87 14 100 31 100 13 0 15 -8 10
-37z m507 20 c-7 -2 -21 -2 -30 0 -10 3 -4 5 12 5 17 0 24 -2 18 -5z m-217
-67 c-4 -25 -9 -68 -11 -96 -5 -57 -12 -73 -26 -65 -12 8 -12 82 0 89 5 3 7
24 4 46 -7 47 1 70 23 70 14 0 15 -7 10 -44z m57 19 c-1 -11 -4 -51 -8 -89 -7
-88 -13 -106 -31 -106 -11 0 -14 15 -14 61 0 33 3 58 8 56 4 -3 7 11 7 31 1
21 4 45 8 55 9 23 33 16 30 -8z m494 9 c-3 -3 -12 -4 -19 -1 -8 3 -5 6 6 6 11
1 17 -2 13 -5z m-1283 -12 c3 -5 3 -25 -1 -45 -7 -45 -33 -51 -33 -8 0 49 19
78 34 53z m1343 2 c-3 -3 -12 -4 -19 -1 -8 3 -5 6 6 6 11 1 17 -2 13 -5z
m-730 -20 c-3 -3 -12 -4 -19 -1 -8 3 -5 6 6 6 11 1 17 -2 13 -5z m479 -16 c-3
-13 -8 -54 -11 -93 -8 -90 -13 -105 -31 -98 -16 6 -20 88 -5 97 5 3 7 15 4 26
-3 11 -2 36 1 55 5 26 12 35 27 35 15 0 18 -5 15 -22z m70 -37 c-3 -25 -8 -72
-11 -103 -5 -40 -11 -58 -20 -58 -12 0 -14 20 -14 92 0 99 10 131 35 121 12
-4 14 -16 10 -52z m-296 39 c0 -5 -2 -10 -4 -10 -3 0 -8 5 -11 10 -3 6 -1 10
4 10 6 0 11 -4 11 -10z m130 -22 c0 -11 -49 -9 -75 2 -15 7 -8 9 28 8 26 -1
47 -5 47 -10z m240 -22 c0 -3 -4 -8 -10 -11 -5 -3 -10 -1 -10 4 0 6 5 11 10
11 6 0 10 -2 10 -4z m-1043 -12 c-3 -3 -12 -4 -19 -1 -8 3 -5 6 6 6 11 1 17
-2 13 -5z m1098 -14 c3 -5 1 -10 -4 -10 -6 0 -11 5 -11 10 0 6 2 10 4 10 3 0
8 -4 11 -10z m35 -4 c0 -3 -4 -8 -10 -11 -5 -3 -10 -1 -10 4 0 6 5 11 10 11 6
0 10 -2 10 -4z m-455 -16 c3 -5 -1 -10 -9 -10 -9 0 -16 5 -16 10 0 6 4 10 9
10 6 0 13 -4 16 -10z m-248 -6 c-3 -3 -12 -4 -19 -1 -8 3 -5 6 6 6 11 1 17 -2
13 -5z m372 -10 c2 -2 -10 -4 -27 -4 -18 0 -32 5 -32 10 0 9 47 4 59 -6z m-88
-22 c-7 -2 -18 1 -23 6 -8 8 -4 9 13 5 13 -4 18 -8 10 -11z m-346 -2 l30 -8
-30 0 c-16 0 -41 4 -55 8 l-25 8 25 0 c14 0 39 -4 55 -8z m685 -26 c0 -8 -6
-14 -14 -14 -12 0 -14 10 -7 38 3 10 21 -11 21 -24z m78 -13 c3 -10 -2 -11
-19 -5 -13 4 -30 7 -36 7 -14 0 -17 10 -7 19 9 10 57 -7 62 -21z m-1451 13
c-3 -3 -12 -4 -19 -1 -8 3 -5 6 6 6 11 1 17 -2 13 -5z m656 -1 c-7 -2 -21 -2
-30 0 -10 3 -4 5 12 5 17 0 24 -2 18 -5z m352 -13 c3 -5 2 -10 -4 -10 -5 0
-13 5 -16 10 -3 6 -2 10 4 10 5 0 13 -4 16 -10z m42 -6 c-3 -3 -12 -4 -19 -1
-8 3 -5 6 6 6 11 1 17 -2 13 -5z m330 -40 c-3 -3 -12 -4 -19 -1 -8 3 -5 6 6 6
11 1 17 -2 13 -5z m56 -11 c-7 -2 -19 -2 -25 0 -7 3 -2 5 12 5 14 0 19 -2 13
-5z m-73 -60 c54 -4 70 -8 70 -16 0 -7 -51 -4 -70 3 -3 1 -17 1 -32 0 -16 -1
-28 3 -28 8 0 12 23 22 30 13 3 -3 16 -7 30 -8z m-43 -29 c-3 -3 -12 -4 -19
-1 -8 3 -5 6 6 6 11 1 17 -2 13 -5z"/>
<path d="M3275 3570 c3 -5 8 -10 11 -10 2 0 4 5 4 10 0 6 -5 10 -11 10 -5 0
-7 -4 -4 -10z"/>
<path d="M3300 3570 c0 -5 14 -10 32 -10 36 0 35 4 -4 14 -17 4 -28 2 -28 -4z"/>
<path d="M2935 3490 c27 -12 43 -12 25 0 -8 5 -22 9 -30 9 -10 0 -8 -3 5 -9z"/>
<path d="M2859 3465 c-1 0 -3 -10 -4 -22 -1 -15 3 -23 14 -24 9 0 25 -2 36 -4
56 -11 98 -8 90 5 -3 6 -2 10 4 10 19 0 1 26 -19 27 -13 1 -17 -3 -13 -14 4
-11 2 -14 -5 -9 -7 4 -12 15 -12 24 0 15 -2 15 -10 2 -7 -10 -10 -11 -10 -2 0
8 -12 12 -35 10 -19 -1 -36 -2 -36 -3z"/>
<path d="M2934 3349 c-3 -5 6 -9 20 -9 31 0 34 6 6 13 -11 3 -23 1 -26 -4z"/>
<path d="M2810 3200 c0 -13 -7 -20 -20 -20 -21 0 -29 -16 -7 -17 27 -1 174
-14 207 -19 26 -4 31 -3 20 5 -8 6 -22 11 -31 11 -10 0 -16 7 -15 18 1 11 -6
17 -21 16 -12 0 -20 3 -17 8 3 4 -10 8 -28 9 -18 0 -45 3 -60 5 -23 4 -28 1
-28 -16z"/>
<path d="M2857 2989 c7 -7 15 -10 18 -7 3 3 -2 9 -12 12 -14 6 -15 5 -6 -5z"/>
<path d="M2796 2938 c3 -13 7 -24 9 -25 1 -2 30 -6 64 -10 69 -7 93 7 64 35
-13 13 -16 13 -25 1 -7 -10 -11 -11 -14 -2 -3 7 -11 10 -19 7 -7 -3 -16 -1
-20 5 -3 6 -20 11 -36 11 -27 0 -30 -3 -23 -22z"/>
<path d="M2918 2863 c7 -3 16 -2 19 1 4 3 -2 6 -13 5 -11 0 -14 -3 -6 -6z"/>
<path d="M4210 3510 c0 -5 5 -10 10 -10 6 0 10 5 10 10 0 6 -4 10 -10 10 -5 0
-10 -4 -10 -10z"/>
<path d="M2511 3479 c-1 -23 3 -25 44 -28 33 -1 45 2 43 11 -2 7 4 12 12 10
10 -1 9 3 -5 13 -12 10 -21 12 -23 5 -5 -13 -32 -13 -32 0 0 6 -5 10 -11 10
-6 0 -9 -7 -5 -15 3 -8 1 -15 -4 -15 -5 0 -11 8 -13 18 -3 11 -5 8 -6 -9z"/>
<path d="M4217 3429 c-3 -23 -11 -45 -18 -49 -6 -5 -9 -15 -6 -24 9 -23 -17
-31 -58 -19 l-33 11 -6 -49 c-3 -27 -9 -71 -12 -99 -6 -53 -7 -52 60 -62 39
-6 44 -115 8 -186 -16 -32 -19 -34 -59 -29 l-43 5 0 -43 c0 -39 3 -44 30 -54
38 -13 38 -16 -2 -19 -18 -2 -33 -4 -35 -5 -1 -2 -9 -62 -17 -135 -8 -72 -17
-135 -19 -140 -3 -4 15 -34 39 -66 24 -33 44 -64 44 -70 0 -6 -7 -2 -15 9 -71
95 -88 112 -111 107 -13 -2 -24 -7 -24 -11 0 -10 -121 5 -129 16 -3 4 -13 7
-21 7 -8 -1 -26 -3 -40 -4 -25 -2 -25 -2 5 -15 25 -11 26 -13 10 -17 -11 -2
-35 -1 -52 3 -18 4 -33 3 -33 -2 0 -5 5 -9 10 -9 6 0 10 -5 10 -11 0 -5 -4 -7
-10 -4 -5 3 -10 0 -10 -7 0 -8 -3 -9 -8 -3 -4 6 -44 10 -90 10 -62 1 -86 5
-93 15 -6 11 -9 12 -9 2 0 -9 -10 -11 -32 -8 -18 3 -55 8 -83 11 -27 4 -53 12
-57 18 -6 9 -8 9 -8 0 0 -9 -13 -11 -47 -6 -27 3 -50 9 -53 12 -3 3 -34 7 -69
7 -42 1 -66 6 -72 15 -6 10 -9 11 -9 2 0 -17 -15 -16 -33 2 -11 10 -17 11 -19
3 -5 -14 -158 10 -158 25 0 6 -5 5 -12 0 -19 -15 -88 -4 -88 13 0 8 -4 14 -10
14 -5 0 -10 -5 -10 -10 0 -6 -8 -5 -20 2 -18 12 -19 13 -2 19 11 5 -2 9 -35
14 -56 8 -72 25 -25 26 50 1 -6 16 -90 24 -52 5 -78 12 -78 20 0 7 -12 16 -26
19 l-26 7 6 122 c7 125 10 151 26 272 10 75 12 138 3 118 -2 -7 -12 -13 -21
-13 -11 0 -13 -3 -5 -8 12 -8 16 -24 14 -66 -1 -21 -4 -26 -13 -18 -7 5 -29
11 -50 14 l-36 4 -4 -43 c-3 -42 -3 -42 30 -41 23 1 31 5 28 15 -4 11 -1 11
14 3 11 -6 20 -16 20 -23 0 -7 -4 -6 -10 3 -8 12 -10 10 -10 -9 0 -13 -3 -21
-7 -18 -3 4 -12 2 -19 -4 -8 -7 -14 -7 -19 1 -3 5 -1 10 4 10 6 0 11 5 11 12
0 8 -6 6 -17 -4 -11 -11 -13 -21 -7 -30 5 -8 1 -5 -8 5 -10 11 -18 15 -18 11
0 -21 -31 -311 -36 -332 -2 -13 -8 -20 -13 -18 -5 3 -27 44 -51 92 l-42 86
-65 -6 c-35 -3 -68 -8 -71 -10 -4 -2 -59 -9 -122 -16 -117 -11 -1177 -146
-1300 -165 -145 -22 -221 -33 -232 -32 -46 1 -69 -5 -75 -20 -4 -10 -10 -20
-14 -23 -10 -7 44 -219 223 -879 14 -51 32 -99 39 -106 12 -11 56 -7 259 26
281 46 895 139 1340 205 409 60 368 50 379 93 25 99 27 91 -26 93 l-48 1 50 6
c34 4 51 11 53 21 2 14 -8 15 -100 3 -130 -17 -172 -12 -55 7 68 10 87 17 82
27 -3 8 -5 17 -5 21 0 3 -6 -2 -12 -11 -8 -10 -40 -21 -88 -28 -41 -6 -82 -13
-90 -14 -8 -2 -30 -4 -47 -4 -37 -1 -46 -20 -10 -22 12 -1 4 -5 -18 -8 l-40
-6 -27 58 c-16 33 -28 61 -28 63 0 2 17 4 38 4 20 0 56 5 80 10 24 6 75 13
115 16 39 2 74 10 78 16 11 18 39 0 50 -32 6 -16 15 -30 20 -30 5 0 14 -11 19
-25 9 -25 24 -32 34 -17 6 10 -60 144 -79 158 -8 6 -12 14 -9 17 9 9 -64 157
-78 157 -6 0 -9 3 -5 6 6 6 -58 143 -72 154 -3 3 -7 13 -7 22 -1 14 2 15 16 8
11 -6 34 -10 53 -10 59 0 147 -22 147 -36 0 -16 16 -20 135 -34 112 -13 105
-13 105 6 0 13 8 15 38 10 20 -3 98 -13 172 -21 237 -28 523 -65 574 -75 27
-6 54 -17 60 -25 7 -10 50 -20 125 -30 63 -8 116 -15 118 -15 2 0 3 7 3 15 0
16 -2 17 162 -4 63 -8 72 -6 81 24 11 36 38 339 33 361 -4 13 -1 24 5 26 7 2
15 45 20 105 4 56 19 208 34 338 15 130 25 239 22 241 -2 3 -7 -14 -10 -37z
m-1837 -353 c0 -2 -7 -7 -16 -10 -8 -3 -12 -2 -9 4 6 10 25 14 25 6z m36 -82
c-11 -7 -22 -11 -25 -8 -3 3 3 12 13 20 11 7 22 11 25 8 3 -3 -3 -12 -13 -20z
m-230 -221 c4 -15 13 -34 21 -41 25 -26 13 -32 -64 -33 -43 0 -100 -5 -128
-10 -27 -6 -68 -13 -90 -15 -39 -5 -40 -4 -58 36 -10 24 -15 45 -12 48 3 3 44
7 91 9 47 3 102 11 122 18 20 7 54 14 74 14 33 1 38 -2 44 -26z m-357 -65 c11
-23 17 -45 13 -49 -7 -6 -268 -39 -308 -39 -15 0 -26 12 -39 41 -23 50 -19 54
78 63 40 4 97 11 127 15 105 15 106 15 129 -31z m2261 7 c0 -19 5 -35 10 -35
16 0 12 -60 -5 -66 -8 -4 -15 -17 -15 -29 0 -13 -5 -27 -11 -31 -16 -9 -30 17
-22 41 3 11 6 32 5 47 0 16 3 28 7 28 4 0 6 18 4 40 -2 30 1 40 12 40 10 0 15
-11 15 -35z m-2628 -52 c9 -26 15 -50 12 -53 -3 -3 -47 -8 -97 -12 -51 -4
-103 -9 -117 -12 -14 -3 -45 -8 -70 -12 -41 -5 -47 -4 -57 17 -6 13 -14 36
-17 52 -5 21 -3 27 11 28 33 1 107 10 192 24 130 20 124 21 143 -32z m-372
-33 c0 -16 4 -30 9 -30 5 0 11 -9 14 -19 5 -21 6 -20 -163 -36 -25 -2 -63 -9
-85 -14 -72 -19 -90 -15 -103 22 -26 71 -28 69 138 87 58 7 107 14 109 16 2 2
22 4 43 4 36 0 38 -2 38 -30z m1175 -7 c3 -16 14 -36 22 -46 9 -9 14 -19 12
-21 -2 -2 -67 -11 -144 -20 -77 -9 -152 -19 -166 -22 -23 -4 -29 0 -48 41 -12
25 -19 50 -16 54 2 5 50 12 104 15 55 4 113 11 128 16 15 5 44 9 64 9 32 1 38
-3 44 -26z m-1554 -48 c4 -16 10 -37 13 -46 8 -19 -40 -30 -219 -50 -55 -6
-104 -11 -109 -12 -12 -2 -33 39 -38 73 -3 27 -2 28 192 55 136 19 153 17 161
-20z m1179 8 c6 -16 15 -36 20 -45 19 -34 12 -39 -48 -37 -32 1 -64 -1 -70 -5
-7 -4 -12 -2 -12 4 0 7 -6 8 -17 2 -10 -5 -24 -7 -32 -4 -8 2 -11 0 -8 -5 4
-6 -4 -8 -18 -5 -14 2 -32 -1 -40 -8 -8 -7 -22 -10 -30 -6 -8 3 -15 1 -15 -4
0 -6 -12 -10 -27 -10 -14 0 -24 3 -20 6 3 4 0 19 -8 35 -8 15 -15 37 -15 49 0
18 7 20 58 21 31 1 66 3 77 5 11 2 43 5 70 8 28 3 61 9 75 15 40 16 50 13 60
-16z m-362 -54 c2 -13 10 -32 18 -43 8 -11 14 -23 14 -26 0 -3 -35 -6 -77 -7
-66 -1 -128 -11 -249 -40 -17 -4 -23 3 -34 39 -7 24 -14 47 -14 53 -1 5 28 10
64 12 67 3 240 30 249 39 10 10 26 -4 29 -27z m-380 -47 c2 -12 10 -35 17 -49
8 -15 13 -28 12 -29 -1 -1 -38 -5 -82 -9 -44 -3 -89 -8 -100 -11 -11 -2 -33
-6 -50 -8 -16 -2 -49 -7 -72 -11 -47 -8 -56 1 -68 68 -6 32 -5 37 11 37 11 0
53 5 94 11 230 33 234 33 238 1z m1198 -17 c3 -19 10 -35 14 -35 4 0 10 -8 13
-19 4 -17 -6 -19 -122 -30 -69 -6 -138 -11 -153 -11 -16 0 -28 -4 -28 -10 0
-5 -8 -10 -19 -10 -13 0 -25 16 -40 51 -13 28 -21 52 -19 53 8 6 191 26 236
26 28 0 54 5 57 10 3 6 17 10 30 10 20 0 25 -7 31 -35z m-1588 -35 c2 -14 8
-35 14 -47 6 -13 8 -26 5 -30 -4 -3 -69 -14 -144 -24 -76 -10 -152 -21 -169
-24 -33 -6 -43 7 -58 77 -7 30 -13 28 154 52 199 29 194 29 198 -4z m1210 -13
c2 -15 12 -32 23 -37 25 -14 25 -40 -1 -40 -11 0 -20 5 -20 10 0 13 -12 13
-47 -2 -15 -6 -40 -12 -55 -12 -15 -1 -30 -5 -34 -8 -3 -4 -19 -4 -35 -1 -15
3 -45 2 -66 -2 -32 -6 -35 -9 -18 -15 16 -7 12 -9 -17 -9 -27 -1 -38 3 -38 14
0 8 -6 15 -14 15 -16 0 -26 21 -26 56 0 21 5 24 38 25 20 0 89 9 152 19 147
23 154 22 158 -13z m1839 1 c-3 -8 -6 -5 -6 6 -1 11 2 17 5 13 3 -3 4 -12 1
-19z m-2209 -50 c2 -15 10 -32 18 -38 8 -7 14 -19 14 -27 0 -11 -11 -13 -57
-8 -69 8 -238 -19 -260 -41 -8 -8 -18 -12 -23 -9 -9 5 -34 58 -45 93 -6 21 -4
23 17 20 16 -2 24 -11 26 -28 7 -45 15 -48 104 -33 46 8 85 16 87 19 8 8 -46
4 -103 -7 -51 -11 -78 -8 -64 7 3 3 57 12 119 20 138 18 174 39 54 31 -81 -5
-71 2 30 21 69 13 80 11 83 -20z m-198 -8 c0 -5 -8 -10 -19 -10 -10 0 -33 -3
-50 -6 -19 -4 -31 -2 -31 4 0 6 19 13 43 15 23 2 45 4 50 5 4 1 7 -2 7 -8z
m-190 -41 c0 -17 7 -37 15 -45 29 -30 21 -36 -67 -48 -21 -2 -40 0 -44 5 -3 5
-13 8 -22 5 -10 -3 -34 -6 -54 -8 -20 -1 -35 -5 -32 -9 7 -11 -6 -16 -67 -23
l-56 -7 -17 52 c-18 59 -14 68 39 70 55 1 110 8 160 18 58 13 91 18 123 20 18
1 22 -4 22 -30z m1218 -9 c2 -13 13 -36 24 -50 18 -22 18 -25 3 -28 -9 -2 -21
0 -28 5 -14 10 -14 10 -164 -13 -83 -13 -110 -21 -106 -31 4 -9 -4 -13 -27
-13 -19 0 -29 4 -25 10 4 6 2 16 -3 23 -5 7 -12 29 -16 50 -6 29 -4 37 8 37 9
0 20 -9 27 -21 9 -17 17 -20 42 -15 62 12 73 14 122 20 77 10 105 17 105 25 0
4 -33 2 -72 -5 -109 -17 -192 -24 -182 -14 8 7 105 23 207 34 15 1 30 6 34 10
16 15 48 1 51 -24z m-1611 -50 c3 -17 10 -33 14 -36 14 -8 10 -44 -4 -44 -14
0 -47 60 -47 84 0 9 -10 12 -27 10 -28 -4 -28 -4 -3 5 47 17 60 13 67 -19z
m1238 -5 c5 -17 16 -35 24 -41 22 -17 6 -44 -26 -44 -22 0 -25 2 -13 10 12 8
9 10 -11 10 -15 0 -29 -6 -32 -14 -4 -11 -23 -14 -73 -13 -45 1 -69 -3 -72
-11 -2 -7 -8 -12 -13 -12 -6 0 -7 5 -4 10 4 6 -5 10 -24 8 -32 -2 -41 -12 -18
-21 6 -3 0 -6 -15 -6 -37 -1 -64 28 -73 78 -6 34 -4 41 10 41 9 0 19 -9 22
-21 5 -18 11 -20 42 -15 20 3 79 11 131 17 52 7 99 16 105 21 12 11 -4 10
-115 -7 -52 -8 -108 -15 -125 -14 l-30 0 30 13 c17 7 67 17 110 21 44 5 88 9
97 10 10 1 21 5 25 9 14 14 38 0 48 -29z m-1338 9 c-9 -9 -158 -30 -163 -23
-7 12 7 16 59 18 26 1 58 6 70 10 20 8 44 4 34 -5z m-215 -69 c18 -50 16 -65
-6 -65 -20 0 -54 99 -39 114 14 14 28 -2 45 -49z m1152 29 c3 -9 6 -23 6 -33
0 -17 32 -50 60 -63 9 -4 -1 -7 -22 -7 -21 -1 -38 3 -38 7 0 5 -9 19 -20 32
-11 13 -20 32 -20 42 0 11 -4 17 -9 14 -16 -10 -165 -36 -206 -36 -43 0 -74
-13 -57 -24 6 -3 16 -4 24 -1 7 2 33 7 58 10 53 7 71 10 126 19 52 9 69 -9 22
-23 l-33 -9 30 -2 c17 -1 34 -2 38 -1 5 1 6 -3 3 -7 -3 -5 -57 -17 -121 -27
-83 -12 -115 -21 -115 -31 0 -22 -37 -16 -43 7 -3 12 -10 18 -16 14 -7 -4 -11
4 -11 20 0 15 -4 35 -10 45 -9 16 -3 19 73 25 102 9 236 30 244 39 12 11 31 6
37 -10z m-1021 -1 c-7 -2 -19 -2 -25 0 -7 3 -2 5 12 5 14 0 19 -2 13 -5z m77
-14 c-12 -8 -10 -9 9 -7 17 2 25 -2 27 -14 3 -20 6 -19 -121 -24 -68 -2 -85 0
-71 8 11 6 42 13 70 15 28 2 58 11 66 19 8 8 19 14 25 14 5 0 3 -5 -5 -11z
m337 5 c-3 -3 -12 -4 -19 -1 -8 3 -5 6 6 6 11 1 17 -2 13 -5z m-260 -10 c-3
-3 -12 -4 -19 -1 -8 3 -5 6 6 6 11 1 17 -2 13 -5z m1496 -1 c-7 -2 -21 -2 -30
0 -10 3 -4 5 12 5 17 0 24 -2 18 -5z m-1007 -58 c3 -19 10 -38 15 -41 5 -3 9
-13 9 -23 0 -15 -12 -19 -67 -25 -87 -8 -179 -22 -268 -41 -24 -5 -43 29 -47
85 l-3 35 70 7 c39 4 108 14 155 22 130 21 128 21 136 -19z m-806 -20 c0 -12
-19 -12 -23 0 -4 9 -1 12 9 8 7 -3 14 -7 14 -8z m398 -28 c2 -15 10 -39 17
-54 8 -15 12 -30 9 -35 -13 -20 -31 -4 -49 42 -21 54 -23 55 -73 41 -18 -6
-70 -13 -115 -17 -45 -3 -85 -8 -89 -11 -5 -2 -8 1 -8 6 0 6 3 11 8 11 4 0 34
4 67 10 33 5 87 12 120 16 33 3 67 10 75 15 23 13 35 5 38 -24z m1258 -4 c4
-16 12 -35 19 -43 26 -32 26 -50 0 -50 -13 0 -25 6 -27 14 -2 11 -10 11 -43 1
l-40 -13 40 -2 c39 -2 39 -3 10 -10 -16 -4 -46 -8 -65 -8 -32 0 -33 1 -10 9
26 9 -109 2 -142 -7 -27 -8 -22 13 5 20 12 4 40 9 62 12 22 2 54 8 70 14 24 8
20 8 -25 4 -30 -2 -76 -7 -102 -10 -29 -4 -48 -2 -48 4 0 10 83 27 185 38 75
7 91 12 79 23 -5 6 -43 4 -89 -4 -109 -18 -175 -24 -175 -15 0 3 6 7 13 8 54
7 160 24 197 31 73 14 79 13 86 -16z m-1576 -60 c16 -72 16 -77 -2 -81 -16 -3
-29 24 -43 96 -6 27 -4 32 13 32 16 0 23 -10 32 -47z m780 37 c0 -5 -2 -10 -4
-10 -3 0 -8 5 -11 10 -3 6 -1 10 4 10 6 0 11 -4 11 -10z m481 -27 c7 -21 18
-47 26 -59 15 -24 9 -34 -23 -34 -17 0 -22 4 -17 16 3 9 1 19 -4 23 -6 3 -14
25 -18 49 -5 34 -4 42 8 42 9 0 21 -16 28 -37z m-1081 17 c0 -5 -15 -9 -32 -9
l-33 1 30 8 c17 4 31 8 33 9 1 0 2 -3 2 -9z m53 3 c-7 -2 -21 -2 -30 0 -10 3
-4 5 12 5 17 0 24 -2 18 -5z m953 -20 c3 -16 12 -42 20 -60 8 -17 14 -33 14
-36 0 -3 -26 -8 -57 -12 -32 -3 -114 -15 -182 -26 -68 -11 -124 -19 -125 -17
-7 9 -38 120 -35 122 2 2 60 12 129 21 69 10 143 21 165 25 63 12 64 11 71
-17z m-951 -24 c0 -8 -11 -15 -25 -15 -14 -1 -61 -5 -105 -8 -61 -5 -74 -4
-56 4 14 6 32 16 40 23 12 9 13 9 7 0 -4 -8 -1 -13 8 -13 9 0 16 4 16 9 0 6
12 6 28 2 19 -6 34 -4 47 5 22 17 40 13 40 -7z m50 11 c-3 -5 -13 -10 -21 -10
-8 0 -12 5 -9 10 3 6 13 10 21 10 8 0 12 -4 9 -10z m1488 -7 c-7 -2 -21 -2
-30 0 -10 3 -4 5 12 5 17 0 24 -2 18 -5z m-1836 -35 c-3 -8 -6 -5 -6 6 -1 11
2 17 5 13 3 -3 4 -12 1 -19z m847 6 c3 -9 6 -26 6 -39 0 -13 5 -27 10 -30 6
-3 10 -14 10 -24 0 -23 -57 -35 -79 -17 -11 8 -13 8 -7 -1 4 -7 3 -13 -3 -13
-5 0 -12 6 -15 13 -3 8 -8 7 -16 -5 -6 -10 -21 -18 -33 -17 -21 1 -20 2 3 9
19 7 13 8 -27 8 -29 -1 -58 -6 -65 -11 -9 -6 -4 -7 14 -4 15 2 32 1 37 -3 6
-3 -28 -12 -76 -18 -48 -6 -90 -8 -94 -4 -7 7 -40 115 -36 117 3 2 236 36 287
42 25 3 47 7 49 9 10 9 29 3 35 -12z m643 -20 c-3 -3 -12 -4 -19 -1 -8 3 -5 6
6 6 11 1 17 -2 13 -5z m-1469 -29 c-3 -3 -9 2 -12 12 -6 14 -5 15 5 6 7 -7 10
-15 7 -18z m1409 19 c-3 -3 -12 -4 -19 -1 -8 3 -5 6 6 6 11 1 17 -2 13 -5z
m-998 -36 c13 -34 31 -94 31 -101 0 -4 -8 -7 -18 -7 -17 0 -34 31 -46 83 -11
47 17 67 33 25z m-91 -7 c20 -12 0 -18 -120 -32 -56 -6 -107 -16 -112 -20 -6
-6 -5 -9 2 -9 8 0 10 -9 6 -26 -6 -22 -4 -25 12 -21 11 3 42 8 69 12 81 10
106 16 99 26 -8 14 29 10 49 -5 18 -14 18 -14 0 -20 -31 -9 -156 -28 -191 -28
-23 0 -32 -4 -28 -13 6 -18 -25 -29 -36 -13 -8 13 -24 68 -30 103 -2 16 3 20
32 21 46 2 214 25 219 30 6 6 14 5 29 -5z m-28 -41 c0 -5 -7 -10 -16 -10 -8 0
-12 5 -9 10 3 6 10 10 16 10 5 0 9 -4 9 -10z m30 0 c0 -5 -4 -10 -10 -10 -5 0
-10 5 -10 10 0 6 5 10 10 10 6 0 10 -4 10 -10z m50 6 c0 -11 -19 -15 -25 -6
-3 5 1 10 9 10 9 0 16 -2 16 -4z m-131 -17 c-8 -5 -29 -9 -47 -9 -19 0 -31 -4
-27 -10 3 -6 -1 -7 -9 -4 -26 10 -18 23 17 26 63 7 80 6 66 -3z"/>
<path d="M1980 2750 c-23 -7 -22 -8 10 -8 19 0 49 4 65 8 29 7 28 8 -10 8 -22
0 -51 -4 -65 -8z"/>
<path d="M1920 2740 c0 -5 7 -10 15 -10 8 0 15 5 15 10 0 6 -7 10 -15 10 -8 0
-15 -4 -15 -10z"/>
<path d="M2050 2600 l-35 -7 35 -1 c19 0 44 3 55 8 l20 9 -20 -1 c-11 0 -36
-4 -55 -8z"/>
<path d="M1769 2566 c-2 -3 -29 -6 -60 -7 -30 -1 -64 -6 -74 -11 -28 -12 135
-1 165 11 l25 10 -26 0 c-14 1 -28 -1 -30 -3z"/>
<path d="M1668 2513 c6 -2 18 -2 25 0 6 3 1 5 -13 5 -14 0 -19 -2 -12 -5z"/>
<path d="M1333 2509 c-34 -5 -72 -13 -85 -19 l-23 -9 25 0 c32 -1 201 27 208
34 7 7 -51 4 -125 -6z"/>
<path d="M1358 2473 c-27 -2 -48 -8 -48 -13 0 -9 43 -5 110 10 38 9 21 9 -62
3z"/>
<path d="M1278 2453 c7 -3 16 -2 19 1 4 3 -2 6 -13 5 -11 0 -14 -3 -6 -6z"/>
<path d="M2273 2463 c9 -2 23 -2 30 0 6 3 -1 5 -18 5 -16 0 -22 -2 -12 -5z"/>
<path d="M2065 2440 c-19 -8 -19 -9 3 -9 12 -1 22 4 22 9 0 6 -1 10 -2 9 -2 0
-12 -4 -23 -9z"/>
<path d="M2298 2423 c7 -3 16 -2 19 1 4 3 -2 6 -13 5 -11 0 -14 -3 -6 -6z"/>
<path d="M2078 2393 c7 -3 16 -2 19 1 4 3 -2 6 -13 5 -11 0 -14 -3 -6 -6z"/>
<path d="M1875 2413 l-50 -13 49 5 c46 5 65 11 55 18 -2 2 -26 -3 -54 -10z"/>
<path d="M1713 2393 c-24 -2 -43 -8 -43 -14 0 -12 11 -11 85 6 58 13 44 16
-42 8z"/>
<path d="M1920 2380 c-9 -6 -10 -10 -3 -10 6 0 15 5 18 10 8 12 4 12 -15 0z"/>
<path d="M1813 2363 c9 -2 23 -2 30 0 6 3 -1 5 -18 5 -16 0 -22 -2 -12 -5z"/>
<path d="M1705 2350 c-19 -8 -19 -9 3 -9 12 -1 22 4 22 9 0 6 -1 10 -2 9 -2 0
-12 -4 -23 -9z"/>
<path d="M1490 2320 c0 -12 27 -12 55 0 16 7 13 9 -17 9 -21 1 -38 -3 -38 -9z"/>
<path d="M1576 2317 c3 -10 9 -15 12 -12 3 3 0 11 -7 18 -10 9 -11 8 -5 -6z"/>
<path d="M1039 2306 c-2 -3 -17 -7 -33 -10 -55 -10 -39 -17 24 -10 72 7 106
24 49 24 -20 0 -38 -2 -40 -4z"/>
<path d="M1010 2260 c-20 -7 -17 -8 18 -7 23 0 42 3 42 7 0 8 -31 8 -60 0z"/>
<path d="M2370 2270 c-24 -8 -23 -8 8 -9 20 -1 31 3 27 9 -3 6 -7 10 -8 9 -1
-1 -13 -5 -27 -9z"/>
<path d="M2298 2253 c7 -3 16 -2 19 1 4 3 -2 6 -13 5 -11 0 -14 -3 -6 -6z"/>
<path d="M2140 2230 c0 -13 20 -13 40 0 12 8 9 10 -12 10 -16 0 -28 -4 -28
-10z"/>
<path d="M1969 2216 c-2 -2 -24 -6 -49 -9 -119 -14 -151 -20 -157 -30 -4 -6 6
-7 28 -3 19 4 61 11 94 16 90 14 146 28 114 29 -14 1 -28 -1 -30 -3z"/>
<path d="M1500 2153 c-40 -7 -44 -19 -5 -15 19 2 35 8 35 13 0 5 -1 8 -2 8 -2
-1 -14 -4 -28 -6z"/>
<path d="M1360 2130 c-12 -8 -10 -9 10 -9 14 1 39 5 55 9 29 7 29 8 -10 9 -22
0 -47 -4 -55 -9z"/>
<path d="M2060 2050 c-28 -9 -27 -10 13 -15 18 -2 27 1 27 11 0 15 -3 16 -40
4z"/>
<path d="M1183 1963 c9 -2 25 -2 35 0 9 3 1 5 -18 5 -19 0 -27 -2 -17 -5z"/>
<path d="M1085 1940 c3 -5 8 -10 11 -10 2 0 4 5 4 10 0 6 -5 10 -11 10 -5 0
-7 -4 -4 -10z"/>
<path d="M1185 1920 c-15 -7 -11 -8 18 -6 21 2 41 6 44 10 9 9 -39 6 -62 -4z"/>
<path d="M1095 1910 c-15 -7 -10 -9 23 -8 23 1 42 6 42 10 0 10 -39 9 -65 -2z"/>
<path d="M3929 3358 c-1 -7 -1 -19 0 -25 1 -7 -8 -13 -20 -13 -45 0 -9 -12 62
-21 40 -5 81 -12 91 -15 15 -5 18 1 18 38 0 28 -3 38 -9 29 -7 -11 -9 -11 -14
0 -4 10 -6 9 -6 -3 -1 -11 -6 -15 -16 -12 -8 4 -13 10 -10 14 3 4 -9 10 -25
12 -17 3 -30 1 -30 -4 0 -4 -7 -8 -16 -8 -8 0 -12 5 -9 10 3 6 1 10 -4 10 -6
0 -12 -6 -12 -12z"/>
<path d="M2418 3323 c6 -2 18 -2 25 0 6 3 1 5 -13 5 -14 0 -19 -2 -12 -5z"/>
<path d="M4045 3240 c-3 -5 1 -10 9 -10 9 0 16 5 16 10 0 6 -4 10 -9 10 -6 0
-13 -4 -16 -10z"/>
<path d="M2377 3183 c-17 -16 -5 -33 23 -33 32 0 37 9 18 28 -13 13 -31 16
-41 5z"/>
<path d="M2776 2723 c-4 -10 -15 -14 -31 -11 -15 3 -26 0 -30 -10 -3 -8 -4
-16 -2 -18 1 -2 45 -8 97 -14 52 -6 110 -13 128 -16 34 -5 45 12 15 23 -10 4
-27 15 -38 25 -11 11 -21 14 -23 8 -6 -17 -22 -11 -23 8 0 12 -2 13 -6 3 -3
-7 -8 -9 -12 -4 -3 6 -20 13 -38 16 -23 5 -33 2 -37 -10z"/>
<path d="M3176 2663 c-4 -4 -15 -8 -23 -8 -9 0 -18 -5 -20 -11 -3 -8 16 -14
49 -19 29 -3 65 -8 81 -11 31 -6 36 9 10 34 -12 13 -17 14 -21 4 -3 -10 -8 -8
-19 5 -13 17 -14 17 -9 1 7 -22 -10 -24 -18 -3 -6 16 -18 19 -30 8z"/>
<path d="M2865 2600 c-3 -6 1 -7 9 -4 18 7 21 14 7 14 -6 0 -13 -4 -16 -10z"/>
<path d="M2880 2570 c0 -5 5 -10 10 -10 6 0 10 5 10 10 0 6 -4 10 -10 10 -5 0
-10 -4 -10 -10z"/>
<path d="M3615 2520 c-3 -5 -1 -10 4 -10 6 0 11 5 11 10 0 6 -2 10 -4 10 -3 0
-8 -4 -11 -10z"/>
<path d="M2940 2270 l-25 -7 28 -8 c31 -8 77 1 77 15 0 11 -43 12 -80 0z"/>
<path d="M3125 2271 c-19 -8 -19 -8 3 -15 27 -9 72 0 72 14 0 12 -46 12 -75 1z"/>
<path d="M2745 2260 c-18 -7 -18 -8 8 -15 32 -9 80 2 72 15 -7 12 -52 12 -80
0z"/>
<path d="M3282 2223 c-12 -2 -20 -9 -17 -14 8 -12 82 -12 90 1 3 6 0 10 -9 10
-8 0 -20 2 -28 4 -7 2 -23 1 -36 -1z"/>
<path d="M2920 2177 c0 -32 4 -44 15 -44 12 0 12 3 2 15 -15 18 -15 16 2 35 9
12 10 17 2 17 -7 0 -9 5 -6 10 3 6 1 10 -4 10 -6 0 -11 -19 -11 -43z"/>
<path d="M3103 2145 c0 -27 2 -38 4 -22 2 15 2 37 0 50 -2 12 -4 0 -4 -28z"/>
<path d="M3190 2166 c0 -8 -6 -17 -12 -19 -10 -4 -10 -6 0 -6 8 -1 10 -6 5
-13 -4 -7 -8 -34 -8 -61 0 -37 3 -47 15 -45 12 3 16 21 18 81 2 48 -1 77 -8
77 -5 0 -10 -6 -10 -14z"/>
<path d="M3252 2050 l3 -135 25 0 25 0 1 123 c1 108 0 122 -15 122 -9 0 -23 6
-29 12 -10 10 -12 -15 -10 -122z"/>
<path d="M2945 2160 c-3 -5 -1 -11 5 -15 14 -9 12 -45 -2 -45 -9 0 -8 -4 2
-10 9 -6 10 -10 3 -10 -6 0 -11 -12 -11 -27 0 -16 -1 -34 -3 -42 -2 -7 3 -16
11 -18 12 -4 13 -3 1 5 -11 8 -9 11 9 17 18 6 20 9 9 16 -10 6 -11 11 -3 17
18 11 17 109 -1 116 -8 3 -17 1 -20 -4z"/>
<path d="M3006 2154 c-9 -22 -8 -26 5 -18 8 4 8 0 0 -15 -8 -14 -8 -21 -1 -21
14 0 12 -20 -4 -52 -16 -30 -10 -44 11 -27 8 8 13 35 13 80 0 65 -10 88 -24
53z"/>
<path d="M3139 2145 c-1 -16 -3 -43 -5 -60 -2 -24 -1 -27 7 -13 14 26 19 72 8
89 -6 10 -9 6 -10 -16z"/>
<path d="M2440 2150 c-8 -5 -26 -10 -40 -10 -23 -1 -23 -2 -6 -11 20 -12 66 2
66 21 0 12 -1 12 -20 0z"/>
<path d="M3351 2144 c0 -11 3 -14 6 -6 3 7 2 16 -1 19 -3 4 -6 -2 -5 -13z"/>
<path d="M2330 2130 c-12 -8 -9 -10 13 -10 16 0 26 4 22 10 -8 12 -16 12 -35
0z"/>
<path d="M2280 2120 l-25 -8 28 -1 c15 -1 27 4 27 9 0 6 -1 10 -2 9 -2 -1 -14
-5 -28 -9z"/>
<path d="M2205 2110 c-17 -7 -15 -9 13 -9 17 -1 32 4 32 9 0 12 -17 12 -45 0z"/>
<path d="M2729 2093 c0 -16 -2 -56 -3 -91 -2 -35 1 -57 5 -50 5 7 9 32 9 54 0
24 6 47 14 54 12 9 13 17 4 36 -15 32 -28 30 -29 -3z"/>
<path d="M2910 2080 c0 -22 5 -40 10 -40 6 0 10 18 10 40 0 22 -4 40 -10 40
-5 0 -10 -18 -10 -40z"/>
<path d="M2435 2100 c-18 -8 -17 -9 8 -9 15 -1 27 4 27 9 0 12 -8 12 -35 0z"/>
<path d="M3336 2094 c-20 -19 -20 -25 -1 -18 11 5 13 2 9 -10 -3 -9 -10 -16
-15 -16 -5 0 -9 -4 -9 -10 0 -5 7 -7 15 -4 21 8 19 -16 -2 -32 -13 -10 -14
-13 -4 -14 11 0 11 -3 1 -15 -10 -12 -9 -16 4 -21 9 -4 18 -5 20 -3 8 8 12
150 5 155 -4 2 -15 -3 -23 -12z"/>
<path d="M2210 2070 c-12 -8 -9 -10 13 -10 15 0 27 5 27 10 0 13 -20 13 -40 0z"/>
<path d="M2288 2073 c12 -2 32 -2 45 0 12 2 2 4 -23 4 -25 0 -35 -2 -22 -4z"/>
<path d="M2966 1869 c-15 -91 -25 -82 109 -101 180 -25 170 -27 171 32 1 51
-2 55 -45 52 -8 0 -47 5 -86 12 -58 10 -72 10 -72 0 0 -7 4 -11 9 -8 4 3 5 -2
2 -10 -8 -21 -24 -10 -24 15 0 12 -7 19 -18 19 -10 0 -23 5 -29 11 -9 9 -13 3
-17 -22z m137 -22 c13 -7 41 -12 60 -12 20 1 34 -2 31 -7 -9 -14 -95 -6 -101
10 -5 11 -7 11 -14 0 -7 -10 -9 -9 -9 5 0 20 1 21 33 4z"/>
<path d="M3083 1883 c9 -2 23 -2 30 0 6 3 -1 5 -18 5 -16 0 -22 -2 -12 -5z"/>
<path d="M3158 1873 c6 -2 18 -2 25 0 6 3 1 5 -13 5 -14 0 -19 -2 -12 -5z"/>
<path d="M3287 1823 c-3 -15 -1 -36 3 -47 7 -16 9 -9 9 27 1 52 -4 61 -12 20z"/>
</g>
</svg>
